<?xml version="1.0" encoding="UTF-8" standalone="no"?>
<!-- Generator: Adobe Illustrator 18.0.0, SVG Export Plug-In . SVG Version: 6.00 Build 0)  -->

<svg
   xmlns:dc="http://purl.org/dc/elements/1.1/"
   xmlns:cc="http://creativecommons.org/ns#"
   xmlns:rdf="http://www.w3.org/1999/02/22-rdf-syntax-ns#"
   xmlns:svg="http://www.w3.org/2000/svg"
   xmlns="http://www.w3.org/2000/svg"
   xmlns:sodipodi="http://sodipodi.sourceforge.net/DTD/sodipodi-0.dtd"
   xmlns:inkscape="http://www.inkscape.org/namespaces/inkscape"
   version="1.1"
   id="Capa_1"
   x="0px"
   y="0px"
   viewBox="0 0 497.525 497.525"
   style="enable-background:new 0 0 497.525 497.525;"
   xml:space="preserve"
   sodipodi:docname="cone-cell.svg"
   inkscape:version="0.92.3 (2405546, 2018-03-11)"
   inkscape:export-filename="/home/elio/Documents/latinR2019/Presentación/conos.png"
   inkscape:export-xdpi="34"
   inkscape:export-ydpi="34"><metadata
   id="metadata997"><rdf:RDF><cc:Work
       rdf:about=""><dc:format>image/svg+xml</dc:format><dc:type
         rdf:resource="http://purl.org/dc/dcmitype/StillImage" /><dc:title></dc:title></cc:Work></rdf:RDF></metadata><defs
   id="defs995"><style
     id="style3080"
     type="text/css">
   
    .fil0 {fill:black}
   
  </style><style
     id="style3105"
     type="text/css">
   
    .fil0 {fill:black}
   
  </style></defs><sodipodi:namedview
   pagecolor="#ffffff"
   bordercolor="#666666"
   borderopacity="1"
   objecttolerance="10"
   gridtolerance="10"
   guidetolerance="10"
   inkscape:pageopacity="0"
   inkscape:pageshadow="2"
   inkscape:window-width="1366"
   inkscape:window-height="705"
   id="namedview993"
   showgrid="false"
   inkscape:zoom="0.23717401"
   inkscape:cx="876.58646"
   inkscape:cy="9.9145537"
   inkscape:window-x="0"
   inkscape:window-y="30"
   inkscape:window-maximized="1"
   inkscape:current-layer="Capa_1" />
<g
   id="g960"
   style="fill:#0000ff;fill-opacity:1"
   inkscape:export-xdpi="34"
   inkscape:export-ydpi="34">
	<path
   d="M272.269,208.528c18.593,0,33.72-15.126,33.72-33.72c0-18.593-15.127-33.72-33.72-33.72   c-18.593,0-33.72,15.127-33.72,33.72C238.549,193.402,253.676,208.528,272.269,208.528z M272.269,149.589   c13.906,0,25.22,11.314,25.22,25.22c0,13.906-11.314,25.22-25.22,25.22c-13.906,0-25.22-11.314-25.22-25.22   C247.049,160.902,258.363,149.589,272.269,149.589z"
   id="path942"
   style="fill:#0000ff;fill-opacity:1" />
	<path
   d="M272.269,190.109c8.437,0,15.301-6.863,15.301-15.301s-6.864-15.302-15.301-15.302c-8.437,0-15.301,6.864-15.301,15.302   S263.832,190.109,272.269,190.109z M272.269,168.007c3.75,0,6.801,3.052,6.801,6.802s-3.051,6.801-6.801,6.801   s-6.801-3.051-6.801-6.801S268.519,168.007,272.269,168.007z"
   id="path944"
   style="fill:#0000ff;fill-opacity:1" />
	<path
   d="M210.934,131.51c-6.317,0-21.011,0.863-21.011,8.855c0,7.992,14.694,8.854,21.011,8.854s21.011-0.862,21.011-8.854   C231.946,132.374,217.252,131.51,210.934,131.51z M210.934,140.719c-2.332,0-4.409-0.14-6.189-0.354   c1.78-0.215,3.857-0.355,6.189-0.355c2.333,0,4.41,0.14,6.189,0.355C215.344,140.58,213.267,140.719,210.934,140.719z"
   id="path946"
   style="fill:#0000ff;fill-opacity:1" />
	<path
   d="M213.513,166.137c-6.298,0-10.696,7.883-10.696,19.17c0,11.286,4.398,19.169,10.696,19.169   c6.298,0,10.697-7.883,10.697-19.169C224.21,174.02,219.811,166.137,213.513,166.137z M213.513,195.438   c-0.889-1.382-2.196-4.746-2.196-10.131c0-5.386,1.307-8.749,2.196-10.131c0.89,1.382,2.197,4.745,2.197,10.131   C215.71,190.692,214.403,194.056,213.513,195.438z"
   id="path948"
   style="fill:#0000ff;fill-opacity:1" />
	<path
   d="M258.607,238.926c5.622,0,7.637-2.72,8.339-4.342c2.579-5.965-4.509-12.199-12.677-15.731   c-4.182-1.809-8.375-2.806-11.806-2.806c-5.623,0-7.638,2.721-8.339,4.342c-0.752,1.738-1.342,5.307,3.159,9.67   c2.336,2.265,5.716,4.418,9.518,6.063C250.983,237.929,255.176,238.926,258.607,238.926z M250.895,226.654   c2.86,1.236,4.885,2.575,6.2,3.671c-2.033-0.252-4.509-0.963-6.92-2.006c-2.859-1.237-4.884-2.575-6.2-3.671   C246.008,224.9,248.484,225.611,250.895,226.654z"
   id="path950"
   style="fill:#0000ff;fill-opacity:1" />
	<path
   d="M415.231,429.997c-3.307-3.496-11.795-8.143-47.185-8.143c-34.285,0-77.037,4.21-95.912,6.271V268.889   c25.637-38.04,66.611-105.139,59.423-135.754c-1.488-6.338-4.867-11.037-10.043-13.968c-0.639-0.361-1.36-0.551-2.094-0.551   h-12.607l-5.498-5.498h18.105c0.734,0,1.455-0.189,2.094-0.551c6.554-3.71,10.303-9.344,10.84-16.292   c1.104-14.26-11.431-34.748-37.255-60.896C276.358,16.401,257.05,1.07,256.857,0.918c-1.546-1.224-3.729-1.224-5.275,0   c-0.193,0.152-19.501,15.483-38.244,34.462c-25.824,26.148-38.359,46.637-37.255,60.896c0.538,6.948,4.286,12.582,10.84,16.292   c0.639,0.361,1.36,0.551,2.094,0.551h81.861l5.497,5.498h-87.359c-0.734,0-1.455,0.189-2.094,0.551   c-5.176,2.931-8.555,7.63-10.043,13.968c-7.188,30.616,33.786,97.714,59.423,135.753v160.497   c-10.496,2.676-43.423,10.225-80.126,9.948l-1.142-0.004c-20.67,0-40.17,4.306-54.906,12.124   c-13.713,7.276-21.901,16.919-21.901,25.796c0,7.528,5.427,12.023,14.518,12.023c8.998,0,20.365-4.22,24.553-7.244   c0.271-0.196,0.746-0.457,1.724-0.457c4.327,0,11.7,4.605,18.83,9.058c1.014,0.634,2.035,1.271,3.058,1.903   c6.681,4.126,19.93,4.992,29.867,4.992c15.678,0,32.6-2.172,41.152-5.281c4.495-1.634,8.72-3.771,13.193-6.031   c9.274-4.688,18.863-9.536,31.016-9.536c1.211,0,2.447,0.048,3.674,0.145c6.665,0.521,15.542,2.778,25.821,5.394   c16.282,4.142,36.544,9.297,56.439,9.297c0.001,0,0.001,0,0.003,0c6.008,0,11.772-0.474,17.132-1.407   c25.672-4.475,41.799-12.069,46.638-21.96c2.114-4.322,2.017-8.895-0.281-13.221c-0.482-0.906-0.772-1.452,4.797-5.05   c3.879-2.506,8.275-5.346,8.871-10.301C419.617,436.382,418.308,433.249,415.231,429.997z M405.749,442.734   c-4.237,2.737-12.124,7.832-7.691,16.177c0.379,0.713,0.622,1.405,0.731,2.089h-55.644c-2.347,0-4.25,1.903-4.25,4.25   c0,2.348,1.903,4.25,4.25,4.25h50.326c-5.111,3.794-15.341,8.678-35.722,12.23c-4.879,0.851-10.152,1.281-15.672,1.281h-0.002   c-18.83,0-37.697-4.8-54.343-9.035c-10.658-2.711-19.862-5.053-27.254-5.63c-1.446-0.113-2.905-0.17-4.336-0.17   c-14.179,0-25.161,5.552-34.851,10.45c-4.24,2.144-8.245,4.168-12.263,5.629c-7.601,2.764-23.686,4.769-38.248,4.769   c-12.129,0-21.625-1.392-25.4-3.724c-1.011-0.625-2.02-1.255-3.022-1.881c-8.521-5.322-16.569-10.349-23.332-10.349   c-2.548,0-4.803,0.695-6.701,2.066c-2.751,1.986-12.272,5.635-19.577,5.635c-6.018,0-6.018-2.205-6.018-3.523   c0-9.985,24.11-29.42,68.307-29.42l1.078,0.004c43.235,0.328,81.426-9.93,85.577-11.082c1.839-0.511,3.113-2.187,3.113-4.096   V267.588c0-0.849-0.254-1.677-0.729-2.38c-42.204-62.425-63.679-109.855-58.919-130.129c0.844-3.593,2.506-6.208,5.07-7.962h96.411   c1.719,0,3.269-1.036,3.926-2.624c0.658-1.588,0.294-3.416-0.921-4.632l-13.997-13.997c-0.797-0.797-1.878-1.245-3.005-1.245   h-82.444c-2.235-1.432-3.771-3.109-4.679-5.119h51.63c2.347,0,4.25-1.902,4.25-4.25c0-2.347-1.903-4.25-4.25-4.25h-52   c-0.113,0-0.22,0.024-0.331,0.033c0.404-2.36,1.203-4.884,2.336-7.533h35.994c2.347,0,4.25-1.902,4.25-4.25   c0-2.347-1.903-4.25-4.25-4.25h-31.522c2.285-3.732,5.029-7.609,8.094-11.543c0.143,0.015,0.281,0.043,0.427,0.043h92   c2.347,0,4.25-1.902,4.25-4.25c0-2.347-1.903-4.25-4.25-4.25h-85.441c4.861-5.59,10.163-11.17,15.527-16.5h39.914   c2.347,0,4.25-1.902,4.25-4.25c0-2.347-1.903-4.25-4.25-4.25h-31.102c8.689-8.146,16.975-15.267,23.177-20.302   c22.279,18.086,71.432,63.07,69.662,85.923c-0.298,3.849-2.097,6.731-5.637,8.998h-27.188c-1.719,0-3.269,1.036-3.927,2.624   c-0.658,1.588-0.294,3.416,0.921,4.632l13.998,13.997c0.797,0.797,1.878,1.245,3.005,1.245h13.159   c2.564,1.754,4.226,4.369,5.07,7.962c4.76,20.273-16.715,67.704-58.919,130.13c-0.475,0.703-0.729,1.532-0.729,2.381v165.263   c0,1.2,0.507,2.344,1.396,3.149c0.89,0.806,2.079,1.198,3.271,1.08c0.862-0.084,1.738-0.174,2.646-0.274   c17.463-1.94,61.883-6.454,97.1-6.454c33.239,0,39.793,4.198,41.01,5.484c1.502,1.588,1.763,2.501,1.737,2.719   C410.673,439.552,407.47,441.622,405.749,442.734z"
   id="path952"
   style="fill:#0000ff;fill-opacity:1" />
	<path
   d="M182.144,454h-31c-2.347,0-4.25,1.903-4.25,4.25c0,2.348,1.903,4.25,4.25,4.25h31c2.347,0,4.25-1.902,4.25-4.25   C186.394,455.903,184.491,454,182.144,454z"
   id="path954"
   style="fill:#0000ff;fill-opacity:1" />
	<path
   d="M269.144,444h-31c-2.347,0-4.25,1.903-4.25,4.25c0,2.348,1.903,4.25,4.25,4.25h31c2.347,0,4.25-1.902,4.25-4.25   C273.394,445.903,271.491,444,269.144,444z"
   id="path956"
   style="fill:#0000ff;fill-opacity:1" />
	<path
   d="M378.144,440h-46c-2.347,0-4.25,1.903-4.25,4.25c0,2.348,1.903,4.25,4.25,4.25h46c2.347,0,4.25-1.902,4.25-4.25   C382.394,441.903,380.491,440,378.144,440z"
   id="path958"
   style="fill:#0000ff;fill-opacity:1" />
</g>
<g
   id="g962">
</g>
<g
   id="g964">
</g>
<g
   id="g966">
</g>
<g
   id="g968">
</g>
<g
   id="g970">
</g>
<g
   id="g972">
</g>
<g
   id="g974">
</g>
<g
   id="g976">
</g>
<g
   id="g978">
</g>
<g
   id="g980">
</g>
<g
   id="g982">
</g>
<g
   id="g984">
</g>
<g
   id="g986">
</g>
<g
   id="g988">
</g>
<g
   id="g990">
</g>
<g
   style="fill:#009f00;fill-opacity:1"
   id="g1602"
   transform="translate(385.79269)"
   inkscape:export-xdpi="34"
   inkscape:export-ydpi="34">
	<path
   style="fill:#009f00;fill-opacity:1"
   id="path1584"
   d="m 272.269,208.528 c 18.593,0 33.72,-15.126 33.72,-33.72 0,-18.593 -15.127,-33.72 -33.72,-33.72 -18.593,0 -33.72,15.127 -33.72,33.72 0,18.594 15.127,33.72 33.72,33.72 z m 0,-58.939 c 13.906,0 25.22,11.314 25.22,25.22 0,13.906 -11.314,25.22 -25.22,25.22 -13.906,0 -25.22,-11.314 -25.22,-25.22 0,-13.907 11.314,-25.22 25.22,-25.22 z"
   inkscape:connector-curvature="0" />
	<path
   style="fill:#009f00;fill-opacity:1"
   id="path1586"
   d="m 272.269,190.109 c 8.437,0 15.301,-6.863 15.301,-15.301 0,-8.438 -6.864,-15.302 -15.301,-15.302 -8.437,0 -15.301,6.864 -15.301,15.302 0,8.438 6.864,15.301 15.301,15.301 z m 0,-22.102 c 3.75,0 6.801,3.052 6.801,6.802 0,3.75 -3.051,6.801 -6.801,6.801 -3.75,0 -6.801,-3.051 -6.801,-6.801 0,-3.75 3.051,-6.802 6.801,-6.802 z"
   inkscape:connector-curvature="0" />
	<path
   style="fill:#009f00;fill-opacity:1"
   id="path1588"
   d="m 210.934,131.51 c -6.317,0 -21.011,0.863 -21.011,8.855 0,7.992 14.694,8.854 21.011,8.854 6.317,0 21.011,-0.862 21.011,-8.854 0.001,-7.991 -14.693,-8.855 -21.011,-8.855 z m 0,9.209 c -2.332,0 -4.409,-0.14 -6.189,-0.354 1.78,-0.215 3.857,-0.355 6.189,-0.355 2.333,0 4.41,0.14 6.189,0.355 -1.779,0.215 -3.856,0.354 -6.189,0.354 z"
   inkscape:connector-curvature="0" />
	<path
   style="fill:#009f00;fill-opacity:1"
   id="path1590"
   d="m 213.513,166.137 c -6.298,0 -10.696,7.883 -10.696,19.17 0,11.286 4.398,19.169 10.696,19.169 6.298,0 10.697,-7.883 10.697,-19.169 0,-11.287 -4.399,-19.17 -10.697,-19.17 z m 0,29.301 c -0.889,-1.382 -2.196,-4.746 -2.196,-10.131 0,-5.386 1.307,-8.749 2.196,-10.131 0.89,1.382 2.197,4.745 2.197,10.131 0,5.385 -1.307,8.749 -2.197,10.131 z"
   inkscape:connector-curvature="0" />
	<path
   style="fill:#009f00;fill-opacity:1"
   id="path1592"
   d="m 258.607,238.926 c 5.622,0 7.637,-2.72 8.339,-4.342 2.579,-5.965 -4.509,-12.199 -12.677,-15.731 -4.182,-1.809 -8.375,-2.806 -11.806,-2.806 -5.623,0 -7.638,2.721 -8.339,4.342 -0.752,1.738 -1.342,5.307 3.159,9.67 2.336,2.265 5.716,4.418 9.518,6.063 4.182,1.807 8.375,2.804 11.806,2.804 z m -7.712,-12.272 c 2.86,1.236 4.885,2.575 6.2,3.671 -2.033,-0.252 -4.509,-0.963 -6.92,-2.006 -2.859,-1.237 -4.884,-2.575 -6.2,-3.671 2.033,0.252 4.509,0.963 6.92,2.006 z"
   inkscape:connector-curvature="0" />
	<path
   style="fill:#009f00;fill-opacity:1"
   id="path1594"
   d="m 415.231,429.997 c -3.307,-3.496 -11.795,-8.143 -47.185,-8.143 -34.285,0 -77.037,4.21 -95.912,6.271 V 268.889 c 25.637,-38.04 66.611,-105.139 59.423,-135.754 -1.488,-6.338 -4.867,-11.037 -10.043,-13.968 -0.639,-0.361 -1.36,-0.551 -2.094,-0.551 h -12.607 l -5.498,-5.498 h 18.105 c 0.734,0 1.455,-0.189 2.094,-0.551 6.554,-3.71 10.303,-9.344 10.84,-16.292 C 333.458,82.015 320.923,61.527 295.099,35.379 276.358,16.401 257.05,1.07 256.857,0.918 c -1.546,-1.224 -3.729,-1.224 -5.275,0 -0.193,0.152 -19.501,15.483 -38.244,34.462 -25.824,26.148 -38.359,46.637 -37.255,60.896 0.538,6.948 4.286,12.582 10.84,16.292 0.639,0.361 1.36,0.551 2.094,0.551 h 81.861 l 5.497,5.498 h -87.359 c -0.734,0 -1.455,0.189 -2.094,0.551 -5.176,2.931 -8.555,7.63 -10.043,13.968 -7.188,30.616 33.786,97.714 59.423,135.753 v 160.497 c -10.496,2.676 -43.423,10.225 -80.126,9.948 l -1.142,-0.004 c -20.67,0 -40.17,4.306 -54.906,12.124 -13.713,7.276 -21.901,16.919 -21.901,25.796 0,7.528 5.427,12.023 14.518,12.023 8.998,0 20.365,-4.22 24.553,-7.244 0.271,-0.196 0.746,-0.457 1.724,-0.457 4.327,0 11.7,4.605 18.83,9.058 1.014,0.634 2.035,1.271 3.058,1.903 6.681,4.126 19.93,4.992 29.867,4.992 15.678,0 32.6,-2.172 41.152,-5.281 4.495,-1.634 8.72,-3.771 13.193,-6.031 9.274,-4.688 18.863,-9.536 31.016,-9.536 1.211,0 2.447,0.048 3.674,0.145 6.665,0.521 15.542,2.778 25.821,5.394 16.282,4.142 36.544,9.297 56.439,9.297 10e-4,0 10e-4,0 0.003,0 6.008,0 11.772,-0.474 17.132,-1.407 25.672,-4.475 41.799,-12.069 46.638,-21.96 2.114,-4.322 2.017,-8.895 -0.281,-13.221 -0.482,-0.906 -0.772,-1.452 4.797,-5.05 3.879,-2.506 8.275,-5.346 8.871,-10.301 0.385,-3.192 -0.924,-6.325 -4.001,-9.577 z m -9.482,12.737 c -4.237,2.737 -12.124,7.832 -7.691,16.177 0.379,0.713 0.622,1.405 0.731,2.089 h -55.644 c -2.347,0 -4.25,1.903 -4.25,4.25 0,2.348 1.903,4.25 4.25,4.25 h 50.326 c -5.111,3.794 -15.341,8.678 -35.722,12.23 -4.879,0.851 -10.152,1.281 -15.672,1.281 h -0.002 c -18.83,0 -37.697,-4.8 -54.343,-9.035 -10.658,-2.711 -19.862,-5.053 -27.254,-5.63 -1.446,-0.113 -2.905,-0.17 -4.336,-0.17 -14.179,0 -25.161,5.552 -34.851,10.45 -4.24,2.144 -8.245,4.168 -12.263,5.629 -7.601,2.764 -23.686,4.769 -38.248,4.769 -12.129,0 -21.625,-1.392 -25.4,-3.724 -1.011,-0.625 -2.02,-1.255 -3.022,-1.881 -8.521,-5.322 -16.569,-10.349 -23.332,-10.349 -2.548,0 -4.803,0.695 -6.701,2.066 -2.751,1.986 -12.272,5.635 -19.577,5.635 -6.018,0 -6.018,-2.205 -6.018,-3.523 0,-9.985 24.11,-29.42 68.307,-29.42 l 1.078,0.004 c 43.235,0.328 81.426,-9.93 85.577,-11.082 1.839,-0.511 3.113,-2.187 3.113,-4.096 V 267.588 c 0,-0.849 -0.254,-1.677 -0.729,-2.38 -42.204,-62.425 -63.679,-109.855 -58.919,-130.129 0.844,-3.593 2.506,-6.208 5.07,-7.962 h 96.411 c 1.719,0 3.269,-1.036 3.926,-2.624 0.658,-1.588 0.294,-3.416 -0.921,-4.632 l -13.997,-13.997 c -0.797,-0.797 -1.878,-1.245 -3.005,-1.245 h -82.444 c -2.235,-1.432 -3.771,-3.109 -4.679,-5.119 h 51.63 c 2.347,0 4.25,-1.902 4.25,-4.25 0,-2.347 -1.903,-4.25 -4.25,-4.25 h -52 c -0.113,0 -0.22,0.024 -0.331,0.033 0.404,-2.36 1.203,-4.884 2.336,-7.533 h 35.994 c 2.347,0 4.25,-1.902 4.25,-4.25 0,-2.347 -1.903,-4.25 -4.25,-4.25 h -31.522 c 2.285,-3.732 5.029,-7.609 8.094,-11.543 0.143,0.015 0.281,0.043 0.427,0.043 h 92 c 2.347,0 4.25,-1.902 4.25,-4.25 0,-2.347 -1.903,-4.25 -4.25,-4.25 h -85.441 c 4.861,-5.59 10.163,-11.17 15.527,-16.5 h 39.914 c 2.347,0 4.25,-1.902 4.25,-4.25 0,-2.347 -1.903,-4.25 -4.25,-4.25 h -31.102 c 8.689,-8.146 16.975,-15.267 23.177,-20.302 22.279,18.086 71.432,63.07 69.662,85.923 -0.298,3.849 -2.097,6.731 -5.637,8.998 h -27.188 c -1.719,0 -3.269,1.036 -3.927,2.624 -0.658,1.588 -0.294,3.416 0.921,4.632 l 13.998,13.997 c 0.797,0.797 1.878,1.245 3.005,1.245 h 13.159 c 2.564,1.754 4.226,4.369 5.07,7.962 4.76,20.273 -16.715,67.704 -58.919,130.13 -0.475,0.703 -0.729,1.532 -0.729,2.381 v 165.263 c 0,1.2 0.507,2.344 1.396,3.149 0.89,0.806 2.079,1.198 3.271,1.08 0.862,-0.084 1.738,-0.174 2.646,-0.274 17.463,-1.94 61.883,-6.454 97.1,-6.454 33.239,0 39.793,4.198 41.01,5.484 1.502,1.588 1.763,2.501 1.737,2.719 -0.123,0.995 -3.326,3.065 -5.047,4.177 z"
   inkscape:connector-curvature="0" />
	<path
   style="fill:#009f00;fill-opacity:1"
   id="path1596"
   d="m 182.144,454 h -31 c -2.347,0 -4.25,1.903 -4.25,4.25 0,2.348 1.903,4.25 4.25,4.25 h 31 c 2.347,0 4.25,-1.902 4.25,-4.25 0,-2.347 -1.903,-4.25 -4.25,-4.25 z"
   inkscape:connector-curvature="0" />
	<path
   style="fill:#009f00;fill-opacity:1"
   id="path1598"
   d="m 269.144,444 h -31 c -2.347,0 -4.25,1.903 -4.25,4.25 0,2.348 1.903,4.25 4.25,4.25 h 31 c 2.347,0 4.25,-1.902 4.25,-4.25 0,-2.347 -1.903,-4.25 -4.25,-4.25 z"
   inkscape:connector-curvature="0" />
	<path
   style="fill:#009f00;fill-opacity:1"
   id="path1600"
   d="m 378.144,440 h -46 c -2.347,0 -4.25,1.903 -4.25,4.25 0,2.348 1.903,4.25 4.25,4.25 h 46 c 2.347,0 4.25,-1.902 4.25,-4.25 0,-2.347 -1.903,-4.25 -4.25,-4.25 z"
   inkscape:connector-curvature="0" />
</g><g
   transform="translate(769.47722)"
   id="g1622"
   style="fill:#d12e2e;fill-opacity:1"
   inkscape:export-xdpi="34"
   inkscape:export-ydpi="34">
	<path
   inkscape:connector-curvature="0"
   d="m 272.269,208.528 c 18.593,0 33.72,-15.126 33.72,-33.72 0,-18.593 -15.127,-33.72 -33.72,-33.72 -18.593,0 -33.72,15.127 -33.72,33.72 0,18.594 15.127,33.72 33.72,33.72 z m 0,-58.939 c 13.906,0 25.22,11.314 25.22,25.22 0,13.906 -11.314,25.22 -25.22,25.22 -13.906,0 -25.22,-11.314 -25.22,-25.22 0,-13.907 11.314,-25.22 25.22,-25.22 z"
   id="path1604"
   style="fill:#d12e2e;fill-opacity:1" />
	<path
   inkscape:connector-curvature="0"
   d="m 272.269,190.109 c 8.437,0 15.301,-6.863 15.301,-15.301 0,-8.438 -6.864,-15.302 -15.301,-15.302 -8.437,0 -15.301,6.864 -15.301,15.302 0,8.438 6.864,15.301 15.301,15.301 z m 0,-22.102 c 3.75,0 6.801,3.052 6.801,6.802 0,3.75 -3.051,6.801 -6.801,6.801 -3.75,0 -6.801,-3.051 -6.801,-6.801 0,-3.75 3.051,-6.802 6.801,-6.802 z"
   id="path1606"
   style="fill:#d12e2e;fill-opacity:1" />
	<path
   inkscape:connector-curvature="0"
   d="m 210.934,131.51 c -6.317,0 -21.011,0.863 -21.011,8.855 0,7.992 14.694,8.854 21.011,8.854 6.317,0 21.011,-0.862 21.011,-8.854 0.001,-7.991 -14.693,-8.855 -21.011,-8.855 z m 0,9.209 c -2.332,0 -4.409,-0.14 -6.189,-0.354 1.78,-0.215 3.857,-0.355 6.189,-0.355 2.333,0 4.41,0.14 6.189,0.355 -1.779,0.215 -3.856,0.354 -6.189,0.354 z"
   id="path1608"
   style="fill:#d12e2e;fill-opacity:1" />
	<path
   inkscape:connector-curvature="0"
   d="m 213.513,166.137 c -6.298,0 -10.696,7.883 -10.696,19.17 0,11.286 4.398,19.169 10.696,19.169 6.298,0 10.697,-7.883 10.697,-19.169 0,-11.287 -4.399,-19.17 -10.697,-19.17 z m 0,29.301 c -0.889,-1.382 -2.196,-4.746 -2.196,-10.131 0,-5.386 1.307,-8.749 2.196,-10.131 0.89,1.382 2.197,4.745 2.197,10.131 0,5.385 -1.307,8.749 -2.197,10.131 z"
   id="path1610"
   style="fill:#d12e2e;fill-opacity:1" />
	<path
   inkscape:connector-curvature="0"
   d="m 258.607,238.926 c 5.622,0 7.637,-2.72 8.339,-4.342 2.579,-5.965 -4.509,-12.199 -12.677,-15.731 -4.182,-1.809 -8.375,-2.806 -11.806,-2.806 -5.623,0 -7.638,2.721 -8.339,4.342 -0.752,1.738 -1.342,5.307 3.159,9.67 2.336,2.265 5.716,4.418 9.518,6.063 4.182,1.807 8.375,2.804 11.806,2.804 z m -7.712,-12.272 c 2.86,1.236 4.885,2.575 6.2,3.671 -2.033,-0.252 -4.509,-0.963 -6.92,-2.006 -2.859,-1.237 -4.884,-2.575 -6.2,-3.671 2.033,0.252 4.509,0.963 6.92,2.006 z"
   id="path1612"
   style="fill:#d12e2e;fill-opacity:1" />
	<path
   inkscape:connector-curvature="0"
   d="m 415.231,429.997 c -3.307,-3.496 -11.795,-8.143 -47.185,-8.143 -34.285,0 -77.037,4.21 -95.912,6.271 V 268.889 c 25.637,-38.04 66.611,-105.139 59.423,-135.754 -1.488,-6.338 -4.867,-11.037 -10.043,-13.968 -0.639,-0.361 -1.36,-0.551 -2.094,-0.551 h -12.607 l -5.498,-5.498 h 18.105 c 0.734,0 1.455,-0.189 2.094,-0.551 6.554,-3.71 10.303,-9.344 10.84,-16.292 C 333.458,82.015 320.923,61.527 295.099,35.379 276.358,16.401 257.05,1.07 256.857,0.918 c -1.546,-1.224 -3.729,-1.224 -5.275,0 -0.193,0.152 -19.501,15.483 -38.244,34.462 -25.824,26.148 -38.359,46.637 -37.255,60.896 0.538,6.948 4.286,12.582 10.84,16.292 0.639,0.361 1.36,0.551 2.094,0.551 h 81.861 l 5.497,5.498 h -87.359 c -0.734,0 -1.455,0.189 -2.094,0.551 -5.176,2.931 -8.555,7.63 -10.043,13.968 -7.188,30.616 33.786,97.714 59.423,135.753 v 160.497 c -10.496,2.676 -43.423,10.225 -80.126,9.948 l -1.142,-0.004 c -20.67,0 -40.17,4.306 -54.906,12.124 -13.713,7.276 -21.901,16.919 -21.901,25.796 0,7.528 5.427,12.023 14.518,12.023 8.998,0 20.365,-4.22 24.553,-7.244 0.271,-0.196 0.746,-0.457 1.724,-0.457 4.327,0 11.7,4.605 18.83,9.058 1.014,0.634 2.035,1.271 3.058,1.903 6.681,4.126 19.93,4.992 29.867,4.992 15.678,0 32.6,-2.172 41.152,-5.281 4.495,-1.634 8.72,-3.771 13.193,-6.031 9.274,-4.688 18.863,-9.536 31.016,-9.536 1.211,0 2.447,0.048 3.674,0.145 6.665,0.521 15.542,2.778 25.821,5.394 16.282,4.142 36.544,9.297 56.439,9.297 10e-4,0 10e-4,0 0.003,0 6.008,0 11.772,-0.474 17.132,-1.407 25.672,-4.475 41.799,-12.069 46.638,-21.96 2.114,-4.322 2.017,-8.895 -0.281,-13.221 -0.482,-0.906 -0.772,-1.452 4.797,-5.05 3.879,-2.506 8.275,-5.346 8.871,-10.301 0.385,-3.192 -0.924,-6.325 -4.001,-9.577 z m -9.482,12.737 c -4.237,2.737 -12.124,7.832 -7.691,16.177 0.379,0.713 0.622,1.405 0.731,2.089 h -55.644 c -2.347,0 -4.25,1.903 -4.25,4.25 0,2.348 1.903,4.25 4.25,4.25 h 50.326 c -5.111,3.794 -15.341,8.678 -35.722,12.23 -4.879,0.851 -10.152,1.281 -15.672,1.281 h -0.002 c -18.83,0 -37.697,-4.8 -54.343,-9.035 -10.658,-2.711 -19.862,-5.053 -27.254,-5.63 -1.446,-0.113 -2.905,-0.17 -4.336,-0.17 -14.179,0 -25.161,5.552 -34.851,10.45 -4.24,2.144 -8.245,4.168 -12.263,5.629 -7.601,2.764 -23.686,4.769 -38.248,4.769 -12.129,0 -21.625,-1.392 -25.4,-3.724 -1.011,-0.625 -2.02,-1.255 -3.022,-1.881 -8.521,-5.322 -16.569,-10.349 -23.332,-10.349 -2.548,0 -4.803,0.695 -6.701,2.066 -2.751,1.986 -12.272,5.635 -19.577,5.635 -6.018,0 -6.018,-2.205 -6.018,-3.523 0,-9.985 24.11,-29.42 68.307,-29.42 l 1.078,0.004 c 43.235,0.328 81.426,-9.93 85.577,-11.082 1.839,-0.511 3.113,-2.187 3.113,-4.096 V 267.588 c 0,-0.849 -0.254,-1.677 -0.729,-2.38 -42.204,-62.425 -63.679,-109.855 -58.919,-130.129 0.844,-3.593 2.506,-6.208 5.07,-7.962 h 96.411 c 1.719,0 3.269,-1.036 3.926,-2.624 0.658,-1.588 0.294,-3.416 -0.921,-4.632 l -13.997,-13.997 c -0.797,-0.797 -1.878,-1.245 -3.005,-1.245 h -82.444 c -2.235,-1.432 -3.771,-3.109 -4.679,-5.119 h 51.63 c 2.347,0 4.25,-1.902 4.25,-4.25 0,-2.347 -1.903,-4.25 -4.25,-4.25 h -52 c -0.113,0 -0.22,0.024 -0.331,0.033 0.404,-2.36 1.203,-4.884 2.336,-7.533 h 35.994 c 2.347,0 4.25,-1.902 4.25,-4.25 0,-2.347 -1.903,-4.25 -4.25,-4.25 h -31.522 c 2.285,-3.732 5.029,-7.609 8.094,-11.543 0.143,0.015 0.281,0.043 0.427,0.043 h 92 c 2.347,0 4.25,-1.902 4.25,-4.25 0,-2.347 -1.903,-4.25 -4.25,-4.25 h -85.441 c 4.861,-5.59 10.163,-11.17 15.527,-16.5 h 39.914 c 2.347,0 4.25,-1.902 4.25,-4.25 0,-2.347 -1.903,-4.25 -4.25,-4.25 h -31.102 c 8.689,-8.146 16.975,-15.267 23.177,-20.302 22.279,18.086 71.432,63.07 69.662,85.923 -0.298,3.849 -2.097,6.731 -5.637,8.998 h -27.188 c -1.719,0 -3.269,1.036 -3.927,2.624 -0.658,1.588 -0.294,3.416 0.921,4.632 l 13.998,13.997 c 0.797,0.797 1.878,1.245 3.005,1.245 h 13.159 c 2.564,1.754 4.226,4.369 5.07,7.962 4.76,20.273 -16.715,67.704 -58.919,130.13 -0.475,0.703 -0.729,1.532 -0.729,2.381 v 165.263 c 0,1.2 0.507,2.344 1.396,3.149 0.89,0.806 2.079,1.198 3.271,1.08 0.862,-0.084 1.738,-0.174 2.646,-0.274 17.463,-1.94 61.883,-6.454 97.1,-6.454 33.239,0 39.793,4.198 41.01,5.484 1.502,1.588 1.763,2.501 1.737,2.719 -0.123,0.995 -3.326,3.065 -5.047,4.177 z"
   id="path1614"
   style="fill:#d12e2e;fill-opacity:1" />
	<path
   inkscape:connector-curvature="0"
   d="m 182.144,454 h -31 c -2.347,0 -4.25,1.903 -4.25,4.25 0,2.348 1.903,4.25 4.25,4.25 h 31 c 2.347,0 4.25,-1.902 4.25,-4.25 0,-2.347 -1.903,-4.25 -4.25,-4.25 z"
   id="path1616"
   style="fill:#d12e2e;fill-opacity:1" />
	<path
   inkscape:connector-curvature="0"
   d="m 269.144,444 h -31 c -2.347,0 -4.25,1.903 -4.25,4.25 0,2.348 1.903,4.25 4.25,4.25 h 31 c 2.347,0 4.25,-1.902 4.25,-4.25 0,-2.347 -1.903,-4.25 -4.25,-4.25 z"
   id="path1618"
   style="fill:#d12e2e;fill-opacity:1" />
	<path
   inkscape:connector-curvature="0"
   d="m 378.144,440 h -46 c -2.347,0 -4.25,1.903 -4.25,4.25 0,2.348 1.903,4.25 4.25,4.25 h 46 c 2.347,0 4.25,-1.902 4.25,-4.25 0,-2.347 -1.903,-4.25 -4.25,-4.25 z"
   id="path1620"
   style="fill:#d12e2e;fill-opacity:1" />
</g><path
   style="fill:#0000ff;fill-opacity:1;stroke:#000000;stroke-width:6.96679068;stroke-linecap:butt;stroke-linejoin:miter;stroke-miterlimit:4;stroke-dasharray:none;stroke-opacity:1"
   d="m 337.72081,-424.29967 -136.26824,231.17887 78.7927,1.32289 -52.56575,166.529542 176.79657,-242.173062 -81.77407,0.94113 z"
   id="path1624"
   inkscape:connector-curvature="0"
   sodipodi:nodetypes="ccccccc"
   inkscape:export-xdpi="34"
   inkscape:export-ydpi="34" /><path
   sodipodi:nodetypes="ccccccc"
   inkscape:connector-curvature="0"
   id="path1794"
   d="m 684.61752,-245.28211 -69.71728,118.27527 40.31176,0.67681 -26.89358,85.199514 90.4523,-123.900094 -41.83709,0.48149 z"
   style="fill:#009f00;fill-opacity:1;stroke:#000000;stroke-width:3.56433535;stroke-linecap:butt;stroke-linejoin:miter;stroke-miterlimit:4;stroke-dasharray:none;stroke-opacity:1"
   inkscape:export-xdpi="34"
   inkscape:export-ydpi="34" /><g
   style="clip-rule:evenodd;fill:#0000ff;fill-opacity:1;fill-rule:evenodd;image-rendering:optimizeQuality;shape-rendering:geometricPrecision;text-rendering:geometricPrecision"
   transform="matrix(74.738242,0,0,74.738242,-68.558907,463.88411)"
   id="g3111"
   inkscape:export-xdpi="34"
   inkscape:export-ydpi="34"><path
     style="fill:#0000ff;fill-opacity:1"
     inkscape:connector-curvature="0"
     class="fil0"
     d="m 4.4941,0.9048 c 0.4763,2.0564 0.9527,4.1129 1.429,6.1693 0.1596,0 0.3193,0 0.4789,0 0.0554,0 0.1006,0.0452 0.1006,0.1006 0,0.0955 0,0.1909 0,0.2864 0,0.0554 -0.0452,0.1006 -0.1006,0.1006 -1.4458,0 -2.8916,0 -4.3374,0 -0.0554,0 -0.1006,-0.0452 -0.1006,-0.1006 0,-0.0955 0,-0.1909 0,-0.2864 0,-0.0554 0.0452,-0.1006 0.1006,-0.1006 0.1596,0 0.3193,0 0.4789,0 0.4763,-2.0564 0.9527,-4.1129 1.429,-6.1693 0.1739,0 0.3477,0 0.5216,0 z m 0.9232,4.529 c 0.0815,0.3519 0.163,0.7039 0.2445,1.0558 -0.9523,0 -1.9047,0 -2.857,0 0.0815,-0.3519 0.163,-0.7039 0.2445,-1.0558 0.7893,0 1.5787,0 2.368,0 z M 4.8113,2.9235 c 0.0734,0.3167 0.1467,0.6333 0.2201,0.95 -0.5321,0 -1.0641,0 -1.5962,0 0.0734,-0.3167 0.1467,-0.6333 0.2201,-0.95 0.3853,0 0.7707,0 1.156,0 z"
     id="path3109" /></g><g
   id="g3140"
   transform="matrix(74.738242,0,0,74.738242,317.23409,463.88411)"
   style="clip-rule:evenodd;fill:#009f00;fill-opacity:1;fill-rule:evenodd;image-rendering:optimizeQuality;shape-rendering:geometricPrecision;text-rendering:geometricPrecision"
   inkscape:export-xdpi="34"
   inkscape:export-ydpi="34"><path
     id="path3138"
     d="m 4.4941,0.9048 c 0.4763,2.0564 0.9527,4.1129 1.429,6.1693 0.1596,0 0.3193,0 0.4789,0 0.0554,0 0.1006,0.0452 0.1006,0.1006 0,0.0955 0,0.1909 0,0.2864 0,0.0554 -0.0452,0.1006 -0.1006,0.1006 -1.4458,0 -2.8916,0 -4.3374,0 -0.0554,0 -0.1006,-0.0452 -0.1006,-0.1006 0,-0.0955 0,-0.1909 0,-0.2864 0,-0.0554 0.0452,-0.1006 0.1006,-0.1006 0.1596,0 0.3193,0 0.4789,0 0.4763,-2.0564 0.9527,-4.1129 1.429,-6.1693 0.1739,0 0.3477,0 0.5216,0 z m 0.9232,4.529 c 0.0815,0.3519 0.163,0.7039 0.2445,1.0558 -0.9523,0 -1.9047,0 -2.857,0 0.0815,-0.3519 0.163,-0.7039 0.2445,-1.0558 0.7893,0 1.5787,0 2.368,0 z M 4.8113,2.9235 c 0.0734,0.3167 0.1467,0.6333 0.2201,0.95 -0.5321,0 -1.0641,0 -1.5962,0 0.0734,-0.3167 0.1467,-0.6333 0.2201,-0.95 0.3853,0 0.7707,0 1.156,0 z"
     class="fil0"
     inkscape:connector-curvature="0"
     style="fill:#009f00;fill-opacity:1" /></g><g
   style="clip-rule:evenodd;fill:#d12e2e;fill-opacity:1;fill-rule:evenodd;image-rendering:optimizeQuality;shape-rendering:geometricPrecision;text-rendering:geometricPrecision"
   transform="matrix(74.738242,0,0,74.738242,700.91809,463.88411)"
   id="g3144"
   inkscape:export-xdpi="34"
   inkscape:export-ydpi="34"><path
     style="fill:#d12e2e;fill-opacity:1"
     inkscape:connector-curvature="0"
     class="fil0"
     d="m 4.4941,0.9048 c 0.4763,2.0564 0.9527,4.1129 1.429,6.1693 0.1596,0 0.3193,0 0.4789,0 0.0554,0 0.1006,0.0452 0.1006,0.1006 0,0.0955 0,0.1909 0,0.2864 0,0.0554 -0.0452,0.1006 -0.1006,0.1006 -1.4458,0 -2.8916,0 -4.3374,0 -0.0554,0 -0.1006,-0.0452 -0.1006,-0.1006 0,-0.0955 0,-0.1909 0,-0.2864 0,-0.0554 0.0452,-0.1006 0.1006,-0.1006 0.1596,0 0.3193,0 0.4789,0 0.4763,-2.0564 0.9527,-4.1129 1.429,-6.1693 0.1739,0 0.3477,0 0.5216,0 z m 0.9232,4.529 c 0.0815,0.3519 0.163,0.7039 0.2445,1.0558 -0.9523,0 -1.9047,0 -2.857,0 0.0815,-0.3519 0.163,-0.7039 0.2445,-1.0558 0.7893,0 1.5787,0 2.368,0 z M 4.8113,2.9235 c 0.0734,0.3167 0.1467,0.6333 0.2201,0.95 -0.5321,0 -1.0641,0 -1.5962,0 0.0734,-0.3167 0.1467,-0.6333 0.2201,-0.95 0.3853,0 0.7707,0 1.156,0 z"
     id="path3142" /></g><g
   id="g3164"
   transform="matrix(7.5387108,0,0,7.5387108,-44.654122,1146.8689)"
   style="fill:#0000ff;fill-opacity:1"
   inkscape:export-xdpi="34"
   inkscape:export-ydpi="34"><polygon
     points="42.598846,49.343109 44.014374,45.821869 28.058502,53.639679 29.020966,56.07016 "
     id="polygon3146"
     style="fill:#0000ff;fill-opacity:1" /><polygon
     points="40.057098,55.666046 41.478546,52.129974 29.759857,57.935883 30.69931,60.308197 "
     id="polygon3148"
     style="fill:#0000ff;fill-opacity:1" /><polygon
     points="45.129486,43.048004 46.553253,39.506134 26.386383,49.417206 27.319733,51.774139 "
     id="polygon3150"
     style="fill:#0000ff;fill-opacity:1" /><polygon
     points="47.669586,36.729157 49.066193,33.254974 24.70462,45.170441 25.647736,47.55191 "
     id="polygon3152"
     style="fill:#0000ff;fill-opacity:1" /><path
     inkscape:connector-curvature="0"
     d="m 33.494293,67.36618 c 0.150391,0.380372 0.518067,0.63086 0.927246,0.631836 4.89e-4,0 0.0015,0 0.0024,0 0.408203,0 0.77539,-0.248047 0.927734,-0.626953 l 3.584656,-8.917175 -7.498352,3.719727 z"
     id="path3154"
     style="fill:#0000ff;fill-opacity:1" /><path
     inkscape:connector-curvature="0"
     d="m 33.880035,35.655731 v 2.206055 c 0,0.21405 -0.03723,0.417969 -0.06323,0.625122 l 7.636291,-3.734985 h -5.73645 z"
     id="path3156"
     style="fill:#0000ff;fill-opacity:1" /><path
     inkscape:connector-curvature="0"
     d="m 23.790192,37.861786 v -3.165527 c -1.304444,-0.134095 -2.537781,-0.509034 -3.658997,-1.07483 l 2.142822,5.411133 1.56012,-0.73529 c -0.01269,-0.145874 -0.04394,-0.286377 -0.04394,-0.435486 z"
     id="path3158"
     style="fill:#0000ff;fill-opacity:1" /><path
     inkscape:connector-curvature="0"
     d="m 24.409943,40.23703 -1.398072,0.658874 0.954102,2.40918 2.2948,-1.122436 C 25.47879,41.713837 24.84317,41.042755 24.409943,40.23703 Z"
     id="path3160"
     style="fill:#0000ff;fill-opacity:1" /><path
     inkscape:connector-curvature="0"
     d="m 46.709991,13.321991 c -0.150024,-5.3699951 -4.020019,-10 -9.289977,-11.0799561 -0.76001,-0.1600342 -1.53003,-0.2400513 -2.360047,-0.2400513 -0.169983,0 -0.349976,0 -0.48999,0.01001 -6.26001,0.2600098 -11.169983,5.3699951 -11.169983,11.6500244 0,0.679992 0.06,1.359985 0.179993,2.019958 -4.109986,0.640015 -7.279969,4.210022 -7.279969,8.490052 0,4.72998 3.849976,8.579956 8.579956,8.579956 h 0.910035 v 5.110046 c 0,1.679993 1.359985,3.049988 3.039978,3.049988 1.679992,0 3.049987,-1.369995 3.049987,-3.049988 v -5.110046 h 11.869995 c 5.490052,0 9.950013,-4.459961 9.950013,-9.940003 0,-4.409973 -2.829956,-8.199951 -6.989991,-9.48999 z M 41.72525,12.878876 c -0.08887,0.02441 -0.177734,0.03613 -0.265625,0.03613 -0.438965,0 -0.841797,-0.291504 -0.963867,-0.735352 C 39.923492,10.097626 38.265777,8.5395202 36.170563,8.1127624 35.629547,8.0024108 35.279938,7.4745788 35.390289,6.9330749 c 0.11084,-0.5405273 0.637696,-0.8886719 1.179688,-0.7802734 2.837402,0.578125 5.081055,2.684082 5.854492,5.4965825 0.146484,0.532226 -0.166504,1.083007 -0.699219,1.229492 z"
     id="path3162"
     style="fill:#0000ff;fill-opacity:1" /></g><text
   style="font-weight:bold;font-size:52.10966492px;font-family:'Helvetica Neue', Helvetica, Arial-Unicode, Arial, Sans-serif;fill:#000000;stroke-width:10.42193317"
   x="2034.9274"
   y="2658.8608"
   font-size="5px"
   font-weight="bold"
   id="text3166">Created by Vectorstall</text>
<text
   style="font-weight:bold;font-size:52.10966492px;font-family:'Helvetica Neue', Helvetica, Arial-Unicode, Arial, Sans-serif;fill:#000000;stroke-width:10.42193317"
   x="1807.2463"
   y="2584.4812"
   font-size="5px"
   font-weight="bold"
   id="text3168">from the Noun Project</text>
<g
   style="fill:#009f00;fill-opacity:1"
   transform="matrix(7.5387108,0,0,7.5387108,370.65307,1146.8689)"
   id="g3222"
   inkscape:export-xdpi="34"
   inkscape:export-ydpi="34"><polygon
     style="fill:#009f00;fill-opacity:1"
     id="polygon3204"
     points="28.058502,53.639679 29.020966,56.07016 42.598846,49.343109 44.014374,45.821869 " /><polygon
     style="fill:#009f00;fill-opacity:1"
     id="polygon3206"
     points="29.759857,57.935883 30.69931,60.308197 40.057098,55.666046 41.478546,52.129974 " /><polygon
     style="fill:#009f00;fill-opacity:1"
     id="polygon3208"
     points="26.386383,49.417206 27.319733,51.774139 45.129486,43.048004 46.553253,39.506134 " /><polygon
     style="fill:#009f00;fill-opacity:1"
     id="polygon3210"
     points="24.70462,45.170441 25.647736,47.55191 47.669586,36.729157 49.066193,33.254974 " /><path
     style="fill:#009f00;fill-opacity:1"
     id="path3212"
     d="m 33.494293,67.36618 c 0.150391,0.380372 0.518067,0.63086 0.927246,0.631836 4.89e-4,0 0.0015,0 0.0024,0 0.408203,0 0.77539,-0.248047 0.927734,-0.626953 l 3.584656,-8.917175 -7.498352,3.719727 z"
     inkscape:connector-curvature="0" /><path
     style="fill:#009f00;fill-opacity:1"
     id="path3214"
     d="m 33.880035,35.655731 v 2.206055 c 0,0.21405 -0.03723,0.417969 -0.06323,0.625122 l 7.636291,-3.734985 h -5.73645 z"
     inkscape:connector-curvature="0" /><path
     style="fill:#009f00;fill-opacity:1"
     id="path3216"
     d="m 23.790192,37.861786 v -3.165527 c -1.304444,-0.134095 -2.537781,-0.509034 -3.658997,-1.07483 l 2.142822,5.411133 1.56012,-0.73529 c -0.01269,-0.145874 -0.04394,-0.286377 -0.04394,-0.435486 z"
     inkscape:connector-curvature="0" /><path
     style="fill:#009f00;fill-opacity:1"
     id="path3218"
     d="m 24.409943,40.23703 -1.398072,0.658874 0.954102,2.40918 2.2948,-1.122436 C 25.47879,41.713837 24.84317,41.042755 24.409943,40.23703 Z"
     inkscape:connector-curvature="0" /><path
     style="fill:#009f00;fill-opacity:1"
     id="path3220"
     d="m 46.709991,13.321991 c -0.150024,-5.3699951 -4.020019,-10 -9.289977,-11.0799561 -0.76001,-0.1600342 -1.53003,-0.2400513 -2.360047,-0.2400513 -0.169983,0 -0.349976,0 -0.48999,0.01001 -6.26001,0.2600098 -11.169983,5.3699951 -11.169983,11.6500244 0,0.679992 0.06,1.359985 0.179993,2.019958 -4.109986,0.640015 -7.279969,4.210022 -7.279969,8.490052 0,4.72998 3.849976,8.579956 8.579956,8.579956 h 0.910035 v 5.110046 c 0,1.679993 1.359985,3.049988 3.039978,3.049988 1.679992,0 3.049987,-1.369995 3.049987,-3.049988 v -5.110046 h 11.869995 c 5.490052,0 9.950013,-4.459961 9.950013,-9.940003 0,-4.409973 -2.829956,-8.199951 -6.989991,-9.48999 z M 41.72525,12.878876 c -0.08887,0.02441 -0.177734,0.03613 -0.265625,0.03613 -0.438965,0 -0.841797,-0.291504 -0.963867,-0.735352 C 39.923492,10.097626 38.265777,8.5395202 36.170563,8.1127624 35.629547,8.0024108 35.279938,7.4745788 35.390289,6.9330749 c 0.11084,-0.5405273 0.637696,-0.8886719 1.179688,-0.7802734 2.837402,0.578125 5.081055,2.684082 5.854492,5.4965825 0.146484,0.532226 -0.166504,1.083007 -0.699219,1.229492 z"
     inkscape:connector-curvature="0" /></g><g
   id="g3242"
   transform="matrix(7.5387108,0,0,7.5387108,762.7697,1146.8689)"
   style="fill:#d12e2e;fill-opacity:1"
   inkscape:export-xdpi="34"
   inkscape:export-ydpi="34"><polygon
     points="28.058502,53.639679 29.020966,56.07016 42.598846,49.343109 44.014374,45.821869 "
     id="polygon3224"
     style="fill:#d12e2e;fill-opacity:1" /><polygon
     points="29.759857,57.935883 30.69931,60.308197 40.057098,55.666046 41.478546,52.129974 "
     id="polygon3226"
     style="fill:#d12e2e;fill-opacity:1" /><polygon
     points="26.386383,49.417206 27.319733,51.774139 45.129486,43.048004 46.553253,39.506134 "
     id="polygon3228"
     style="fill:#d12e2e;fill-opacity:1" /><polygon
     points="24.70462,45.170441 25.647736,47.55191 47.669586,36.729157 49.066193,33.254974 "
     id="polygon3230"
     style="fill:#d12e2e;fill-opacity:1" /><path
     inkscape:connector-curvature="0"
     d="m 33.494293,67.36618 c 0.150391,0.380372 0.518067,0.63086 0.927246,0.631836 4.89e-4,0 0.0015,0 0.0024,0 0.408203,0 0.77539,-0.248047 0.927734,-0.626953 l 3.584656,-8.917175 -7.498352,3.719727 z"
     id="path3232"
     style="fill:#d12e2e;fill-opacity:1" /><path
     inkscape:connector-curvature="0"
     d="m 33.880035,35.655731 v 2.206055 c 0,0.21405 -0.03723,0.417969 -0.06323,0.625122 l 7.636291,-3.734985 h -5.73645 z"
     id="path3234"
     style="fill:#d12e2e;fill-opacity:1" /><path
     inkscape:connector-curvature="0"
     d="m 23.790192,37.861786 v -3.165527 c -1.304444,-0.134095 -2.537781,-0.509034 -3.658997,-1.07483 l 2.142822,5.411133 1.56012,-0.73529 c -0.01269,-0.145874 -0.04394,-0.286377 -0.04394,-0.435486 z"
     id="path3236"
     style="fill:#d12e2e;fill-opacity:1" /><path
     inkscape:connector-curvature="0"
     d="m 24.409943,40.23703 -1.398072,0.658874 0.954102,2.40918 2.2948,-1.122436 C 25.47879,41.713837 24.84317,41.042755 24.409943,40.23703 Z"
     id="path3238"
     style="fill:#d12e2e;fill-opacity:1" /><path
     inkscape:connector-curvature="0"
     d="m 46.709991,13.321991 c -0.150024,-5.3699951 -4.020019,-10 -9.289977,-11.0799561 -0.76001,-0.1600342 -1.53003,-0.2400513 -2.360047,-0.2400513 -0.169983,0 -0.349976,0 -0.48999,0.01001 -6.26001,0.2600098 -11.169983,5.3699951 -11.169983,11.6500244 0,0.679992 0.06,1.359985 0.179993,2.019958 -4.109986,0.640015 -7.279969,4.210022 -7.279969,8.490052 0,4.72998 3.849976,8.579956 8.579956,8.579956 h 0.910035 v 5.110046 c 0,1.679993 1.359985,3.049988 3.039978,3.049988 1.679992,0 3.049987,-1.369995 3.049987,-3.049988 v -5.110046 h 11.869995 c 5.490052,0 9.950013,-4.459961 9.950013,-9.940003 0,-4.409973 -2.829956,-8.199951 -6.989991,-9.48999 z M 41.72525,12.878876 c -0.08887,0.02441 -0.177734,0.03613 -0.265625,0.03613 -0.438965,0 -0.841797,-0.291504 -0.963867,-0.735352 C 39.923492,10.097626 38.265777,8.5395202 36.170563,8.1127624 35.629547,8.0024108 35.279938,7.4745788 35.390289,6.9330749 c 0.11084,-0.5405273 0.637696,-0.8886719 1.179688,-0.7802734 2.837402,0.578125 5.081055,2.684082 5.854492,5.4965825 0.146484,0.532226 -0.166504,1.083007 -0.699219,1.229492 z"
     id="path3240"
     style="fill:#d12e2e;fill-opacity:1" /></g><path
   inkscape:export-ydpi="34"
   inkscape:export-xdpi="34"
   style="fill:#d12e2e;fill-opacity:1;stroke:#000000;stroke-width:4.36640215;stroke-linecap:butt;stroke-linejoin:miter;stroke-miterlimit:4;stroke-dasharray:none;stroke-opacity:1"
   d="m 1042.5221,-291.45792 -85.40541,144.89024 49.38291,0.82911 -32.94529,104.371591 110.80639,-151.780791 -51.2515,0.58984 z"
   id="path3244"
   inkscape:connector-curvature="0"
   sodipodi:nodetypes="ccccccc" /></svg>