<svg xmlns="http://www.w3.org/2000/svg" xmlns:xlink="http://www.w3.org/1999/xlink" xml:space="preserve" style="shape-rendering:geometricPrecision;text-rendering:geometricPrecision;image-rendering:optimizeQuality;" viewBox="0 0 8.4666 10.58325" x="0px" y="0px" fill-rule="evenodd" clip-rule="evenodd"><defs><style type="text/css">
   
    .fil0 {fill:black}
   
  </style></defs><g><path class="fil0" d="M4.4941 0.9048c0.4763,2.0564 0.9527,4.1129 1.429,6.1693 0.1596,0 0.3193,0 0.4789,0 0.0554,0 0.1006,0.0452 0.1006,0.1006 0,0.0955 0,0.1909 0,0.2864 0,0.0554 -0.0452,0.1006 -0.1006,0.1006 -1.4458,0 -2.8916,0 -4.3374,0 -0.0554,0 -0.1006,-0.0452 -0.1006,-0.1006 0,-0.0955 0,-0.1909 0,-0.2864 0,-0.0554 0.0452,-0.1006 0.1006,-0.1006 0.1596,0 0.3193,0 0.4789,0 0.4763,-2.0564 0.9527,-4.1129 1.429,-6.1693 0.1739,0 0.3477,0 0.5216,0zm0.9232 4.529c0.0815,0.3519 0.163,0.7039 0.2445,1.0558 -0.9523,0 -1.9047,0 -2.857,0 0.0815,-0.3519 0.163,-0.7039 0.2445,-1.0558 0.7893,0 1.5787,0 2.368,0zm-0.606 -2.5103c0.0734,0.3167 0.1467,0.6333 0.2201,0.95 -0.5321,0 -1.0641,0 -1.5962,0 0.0734,-0.3167 0.1467,-0.6333 0.2201,-0.95 0.3853,0 0.7707,0 1.156,0z"/></g><text x="0" y="23.4666" fill="#000000" font-size="5px" font-weight="bold" font-family="'Helvetica Neue', Helvetica, Arial-Unicode, Arial, Sans-serif">Created by Mahabbah</text><text x="0" y="28.4666" fill="#000000" font-size="5px" font-weight="bold" font-family="'Helvetica Neue', Helvetica, Arial-Unicode, Arial, Sans-serif">from the Noun Project</text></svg>