<svg xmlns="http://www.w3.org/2000/svg" xmlns:xlink="http://www.w3.org/1999/xlink" viewBox="0 0 100 125" version="1.1" x="0px" y="0px"><title>ic-7</title><desc>Created with Sketch.</desc><g stroke="none" stroke-width="1" fill="none" fill-rule="evenodd"><path d="M30.7267694,52.0664955 C33.1047694,52.0664955 35.0327694,49.4474955 35.0327694,46.2184955 C35.0327694,42.9884955 33.1047694,40.3704955 30.7257694,40.3704955 C26.1507694,40.3704955 25.8407694,52.0674955 30.7267694,52.0664955 M7.64576937,60.4854955 C6.98776937,59.5414955 6.82176937,58.3374955 7.19776937,57.2524955 C7.87276937,55.0904955 8.51976937,52.8714955 9.20576937,50.5214955 C13.4547694,35.9484955 18.2697694,19.4314955 31.9437694,11.0804955 C43.0307694,4.31249546 56.6197694,3.13349546 69.2317694,7.84949546 C83.8897694,13.3304955 92.9957694,26.5884955 92.9957694,42.4494955 C92.9957694,55.4294955 88.0847694,63.5714955 83.7527694,70.7554955 C79.9597694,77.0444955 76.6847694,82.4754955 76.6847694,90.3354955 L76.6847694,94.7594955 L72.1847694,94.7594955 L72.1847694,90.3354955 C72.1847694,81.2244955 76.1067694,74.7204955 79.8997694,68.4314955 C84.1247694,61.4234955 88.4957694,54.1774955 88.4957694,42.4494955 C88.4957694,28.5144955 80.5097694,16.8714955 67.6557694,12.0644955 C56.3487694,7.83749546 44.1867694,8.87749546 34.2897694,14.9214955 C22.1017694,22.3634955 17.5447694,37.9924955 13.5257694,51.7814955 C12.9457694,53.7694955 12.3927694,55.6654955 11.8237694,57.5244955 L14.6887694,57.5244955 C20.6917694,57.5244955 25.5777694,62.3794955 25.6347694,68.3704955 C25.6347694,76.2954955 25.6397694,80.0124955 25.6397694,80.0124955 C25.6397694,83.9844955 29.0127694,85.7624955 32.3567694,85.7624955 L36.2417694,85.7624955 C41.2037694,85.7624955 45.2397694,89.7984955 45.2397694,94.7594955 L40.7397694,94.7594955 C40.7397694,92.2794955 38.7217694,90.2624955 36.2417694,90.2624955 L32.3567694,90.2624955 C25.8577694,90.2624955 21.1397694,85.9514955 21.1397694,80.0124955 L21.1397694,68.4754955 C21.1397694,64.9184955 18.2467694,62.0244955 14.6887694,62.0244955 L10.5957694,62.0244955 C9.42076937,62.0244955 8.31876937,61.4484955 7.64576937,60.4854955" fill="#000000"/></g><text x="0" y="115" fill="#000000" font-size="5px" font-weight="bold" font-family="'Helvetica Neue', Helvetica, Arial-Unicode, Arial, Sans-serif">Created by Marek Polakovic</text><text x="0" y="120" fill="#000000" font-size="5px" font-weight="bold" font-family="'Helvetica Neue', Helvetica, Arial-Unicode, Arial, Sans-serif">from the Noun Project</text></svg>