<svg xmlns="http://www.w3.org/2000/svg" xmlns:xlink="http://www.w3.org/1999/xlink" version="1.1" x="0px" y="0px" viewBox="0 0 70 87.5" enable-background="new 0 0 70 70" xml:space="preserve"><g><polygon points="29.0209656,56.0701599 42.5988464,49.3431091 44.0143738,45.8218689 28.0585022,53.639679  "/><polygon points="30.6993103,60.308197 40.0570984,55.6660461 41.4785461,52.1299744 29.7598572,57.9358826  "/><polygon points="27.3197327,51.7741394 45.1294861,43.0480042 46.5532532,39.506134 26.3863831,49.4172058  "/><polygon points="25.6477356,47.5519104 47.6695862,36.7291565 49.0661926,33.2549744 24.7046204,45.1704407  "/><path d="M33.4942932,67.3661804c0.1503906,0.3803711,0.5180664,0.6308594,0.9272461,0.6318359c0.0004883,0,0.0014648,0,0.0024414,0   c0.4082031,0,0.7753906-0.2480469,0.9277344-0.6269531l3.5846558-8.9171753l-7.4983521,3.7197266L33.4942932,67.3661804z"/><path d="M33.8800354,35.6557312v2.2060547c0,0.2140503-0.0372314,0.4179688-0.0632324,0.6251221l7.6362915-3.7349854h-5.7364502   L33.8800354,35.6557312z"/><path d="M23.7901917,37.8617859v-3.1655273c-1.3044434-0.1340942-2.5377808-0.5090332-3.6589966-1.0748291l2.1428223,5.4111328   l1.5601196-0.7352905C23.8214417,38.1513977,23.7901917,38.0108948,23.7901917,37.8617859z"/><path d="M24.4099426,40.23703l-1.3980713,0.6588745l0.9541016,2.4091797l2.2947998-1.1224365   C25.4787903,41.7138367,24.8431702,41.0427551,24.4099426,40.23703z"/><path d="M46.7099915,13.321991c-0.1500244-5.3699951-4.0200195-10-9.289978-11.0799561   c-0.7600098-0.1600342-1.5300293-0.2400513-2.3600464-0.2400513c-0.1699829,0-0.3499756,0-0.4899902,0.0100098   C28.309967,2.2720032,23.3999939,7.3819885,23.3999939,13.6620178c0,0.6799927,0.0599976,1.3599854,0.1799927,2.0199585   c-4.1099854,0.6400146-7.2799683,4.210022-7.2799683,8.4900513c0,4.7299805,3.8499756,8.5799561,8.5799561,8.5799561h0.9100342   V37.86203c0,1.6799927,1.3599854,3.0499878,3.039978,3.0499878s3.0499878-1.3699951,3.0499878-3.0499878v-5.1100464h11.8699951   c5.4900513,0,9.9500122-4.4599609,9.9500122-9.9400024C53.6999817,18.4020081,50.8700256,14.61203,46.7099915,13.321991z    M41.7252502,12.8788757c-0.0888672,0.0244141-0.1777344,0.0361328-0.265625,0.0361328   c-0.4389648,0-0.8417969-0.2915039-0.9638672-0.7353516c-0.5722656-2.0820313-2.2299805-3.6401367-4.3251953-4.0668945   c-0.5410156-0.1103516-0.890625-0.6381836-0.7802734-1.1796875c0.1108398-0.5405273,0.6376953-0.8886719,1.1796875-0.7802734   c2.8374023,0.578125,5.0810547,2.684082,5.8544922,5.496582C42.5709534,12.1816101,42.2579651,12.7323914,41.7252502,12.8788757z"/></g><text x="0" y="85" fill="#000000" font-size="5px" font-weight="bold" font-family="'Helvetica Neue', Helvetica, Arial-Unicode, Arial, Sans-serif">Created by Vectorstall</text><text x="0" y="90" fill="#000000" font-size="5px" font-weight="bold" font-family="'Helvetica Neue', Helvetica, Arial-Unicode, Arial, Sans-serif">from the Noun Project</text></svg>